<?xml version="1.0" standalone="no"?>
<!DOCTYPE svg PUBLIC "-//W3C//DTD SVG 20010904//EN"
 "http://www.w3.org/TR/2001/REC-SVG-20010904/DTD/svg10.dtd">
<svg version="1.0" xmlns="http://www.w3.org/2000/svg"
 width="700.000000pt" height="700.000000pt" viewBox="0 0 700.000000 700.000000"
 preserveAspectRatio="xMidYMid meet">
<metadata>
Created by potrace 1.14, written by Peter Selinger 2001-2017
</metadata>
<g transform="translate(0.000000,700.000000) scale(0.100000,-0.100000)"
fill="#000000" stroke="none">
<path d="M4568 6295 c-2 -2 -66 -6 -143 -9 -225 -11 -364 -20 -445 -31 -19 -3
-62 -7 -95 -10 -33 -3 -71 -8 -85 -10 -14 -2 -47 -6 -73 -10 -27 -4 -56 -8
-65 -10 -10 -1 -53 -8 -97 -15 -44 -7 -87 -14 -95 -15 -8 -2 -62 -13 -120 -25
-384 -79 -742 -221 -982 -390 -111 -78 -260 -225 -307 -304 -55 -92 -83 -181
-82 -261 1 -109 17 -158 75 -237 48 -67 105 -112 203 -162 174 -89 318 -120
558 -120 192 -1 290 8 445 40 41 9 84 18 96 20 11 2 70 19 130 38 359 112 677
281 854 457 59 57 59 108 1 99 -12 -1 -118 -75 -131 -91 -14 -17 -228 -138
-316 -180 -200 -94 -492 -191 -639 -214 -22 -3 -56 -8 -75 -12 -19 -3 -111 -7
-205 -8 -292 -5 -453 45 -521 161 -48 81 -38 186 29 308 36 65 41 72 111 155
172 203 522 427 831 529 109 37 247 73 328 88 18 3 50 9 72 14 83 18 351 53
505 65 137 12 170 14 315 21 287 14 1118 6 1145 -11 3 -2 43 -6 90 -10 47 -4
86 -8 88 -9 1 -2 -44 -20 -100 -41 -171 -63 -319 -144 -476 -262 -71 -54 -270
-244 -354 -340 -113 -127 -373 -501 -478 -688 -10 -17 -71 -123 -137 -235
-161 -274 -258 -445 -460 -815 -254 -462 -306 -553 -449 -787 -194 -316 -264
-418 -288 -419 -11 0 -30 -2 -41 -4 -11 -2 -60 -8 -110 -15 -49 -6 -101 -13
-115 -16 -14 -2 -43 -6 -65 -9 -22 -3 -80 -13 -130 -21 -49 -8 -103 -17 -120
-20 -16 -2 -68 -12 -115 -20 -47 -9 -96 -17 -110 -19 -24 -4 -104 -20 -145
-29 -11 -2 -85 -19 -165 -36 -606 -130 -1173 -328 -1512 -529 -180 -106 -353
-254 -441 -378 -56 -77 -107 -196 -127 -293 -43 -210 23 -352 205 -439 70 -34
193 -66 295 -77 123 -14 405 -8 565 10 115 14 154 20 284 46 588 115 1085 342
1546 706 11 8 35 27 54 42 263 206 601 568 851 912 111 152 108 149 165 154
257 23 401 28 911 36 64 0 95 59 41 74 -65 19 -429 25 -739 13 -98 -4 -178 -4
-178 0 0 3 26 47 58 97 33 50 72 114 88 141 15 28 31 52 34 55 3 3 11 16 19
30 215 377 438 814 570 1115 51 116 99 224 106 240 7 17 37 84 65 150 29 66
62 143 75 170 12 28 35 79 50 115 15 36 41 93 56 128 16 34 29 65 29 67 0 3
18 44 40 91 22 47 40 88 40 90 0 6 135 276 172 343 63 116 165 257 238 330
118 118 291 224 447 275 51 17 52 17 103 -9 104 -53 225 -97 335 -121 25 -6
139 -5 184 1 97 13 197 69 227 126 34 66 -12 143 -103 173 -139 45 -406 37
-633 -19 -43 -11 -123 -13 -175 -5 -126 20 -321 38 -595 56 -83 5 -887 13
-892 9z m-1439 -3897 c-40 -58 -221 -291 -273 -353 -465 -550 -957 -923 -1471
-1117 -262 -99 -447 -136 -665 -133 -182 3 -286 26 -370 81 -144 96 -157 290
-32 482 127 195 480 424 912 592 74 29 144 57 155 61 141 60 695 215 980 275
11 2 67 13 124 25 57 11 116 23 130 26 28 6 511 90 524 92 5 1 -2 -14 -14 -31z"/>
</g>
</svg>
